<svg xmlns="http://www.w3.org/2000/svg" viewBox="0 0 760 200" fill="none" role="img" aria-label="poppy: remember what matters">
  <g transform="translate(256.806 30) scale(2.875)">
    <svg x="1.5" y="4" width="11.611" height="23" viewBox="301.785 96.043 420.43 832.809" preserveAspectRatio="xMidYMid meet" overflow="visible"><g transform="matrix(0.484375,0,0,0.484375,512,512)">
        <g transform="matrix(1,0,0,1,-2133.333333,-2133.333333)">
            <g transform="matrix(4.166667,0,0,4.166667,0,0)">
                <path d="M514.247,578.247C513.9,566.402 514.303,554.152 514.341,542.265L514.241,488.11C514.25,476.396 514.532,464.626 514.143,452.919C513.889,445.295 510.045,443.748 503.15,442.55C484.762,440.759 469.345,434.152 456.467,420.494C442.715,405.909 434.814,384.625 418.475,372.214C410.417,366.125 403.835,359.672 411.969,349.681C417.331,343.599 428.021,344.716 434.727,341.079C447.414,331.744 442.051,318.729 465.082,318.073C471.71,317.884 476.828,320.336 481.7,325.265C483.001,326.606 484.276,327.973 485.525,329.363C495.775,317.149 508.578,308.752 524.637,306.303C538.235,304.23 548.296,315.744 559.416,317.478C578.614,320.472 607.942,313.957 602.545,346.025C606.449,345.863 616.419,345.955 616.161,352.049C615.78,361.05 604.559,366.342 600.646,373.945C588.606,394 588.467,408.945 570.313,426.179C564.692,431.612 558.013,435.831 550.692,438.573C542.661,441.583 535.057,441.974 526.775,443.623C526.197,443.738 523.869,445.329 523.782,445.701C521.565,455.21 522.432,476.306 522.434,485.148L522.446,543.199L522.506,718.26L514.441,718.388L514.445,640.135C514.446,611.567 518.08,593.863 497.414,570.481C478.996,574.815 465.88,571.934 449.542,562.093C432.196,551.645 420.929,534.394 416.45,514.837C413.906,503.73 414.267,496.521 415.039,485.342C443.114,485.59 464.933,486.064 486.282,507.841C498.328,520.103 504.937,536.694 504.622,553.881C504.577,557.627 504.182,561.597 503.767,565.333C506.502,568.973 510.694,574.333 512.393,578.397C512.624,578.854 513.286,580.377 513.756,580.604L513.856,580.55C514.174,580.027 514.19,578.861 514.247,578.247ZM590.884,357.314C581.99,369.894 580.704,377.694 575.702,391.975C567.61,415.075 549.917,428.936 526.187,434.265C526.233,434.708 526.169,434.382 526.761,435.079C534.821,435.677 546.745,432.495 553.882,428.727C578.481,415.742 580.752,390.917 593.973,369.793C595.478,367.388 597.29,365.115 599.084,362.927C600.877,360.738 607.022,356.487 607.737,354.172C603.747,351.274 598.656,356.455 591.604,357.241L590.884,357.314ZM422.482,493.043C419.182,526.431 444.942,561.532 479.063,564.489C483.496,564.861 487.959,564.588 492.314,563.68C481.575,552.48 470.662,541.493 459.925,530.33C454.812,525.015 445.235,514.996 441.73,508.834C444.602,508.416 445.25,508.531 447.569,510.398C460.378,520.709 470.597,530.829 481.293,543.336C485.282,548 492.036,554.013 496.467,558.712C497.254,549.466 497.112,542.931 493.717,534.158C484.38,510.024 462.779,495.479 437.329,493.455C432.388,493.099 427.435,492.961 422.482,493.043ZM499.685,327.729C511.335,321.932 524.8,318.371 537.677,322.068C542.815,323.543 547.38,328.568 552.007,329.855C564.471,333.321 580.578,327.95 585.813,344.368L584.428,350.084C586.539,350.411 591.184,351.288 592.604,349.776C596.096,346.058 597.211,335.396 593.39,331.693C584.871,323.439 571.955,327.462 561.543,325.802C549.555,323.891 540.47,315.234 528.527,313.891C518.108,312.915 506.19,320.238 498.717,326.841C497.706,327.615 497.022,328.336 496.138,329.231C497.855,328.72 498.084,328.556 499.685,327.729ZM434.375,359.07C456.128,359.059 450.941,347.857 466.604,338.86C469.952,336.937 476.956,338.029 480.935,336.979C475.857,328.708 466.814,321.829 456.61,327.195C449.404,330.985 448.018,341.88 441.356,346.343C434.529,351.338 425.845,349.445 419.238,354.439L419.156,355.161C421.977,357.058 430.994,358.802 434.375,359.07ZM417.137,360.404C420.461,363.705 423.909,366.438 427.414,369.504C439.512,380.086 446.695,394.935 455.937,407.75C466.242,422.039 481.628,432.371 499.337,434.322C501.743,434.586 509.345,436.115 511.244,434.933C509.002,433.554 502.206,432.081 499.361,431.091C480.331,424.471 463.803,412.569 454.318,394.471C448.547,383.458 446.542,374.82 436.64,366.669C430.849,365.213 422.968,362.349 417.137,360.404Z" style="fill:#F9F6F0;"/>
            </g>
            <g transform="matrix(4.166667,0,0,4.166667,0,0)">
                <path d="M499.685,327.729C511.335,321.932 524.8,318.371 537.677,322.068C542.815,323.543 547.38,328.568 552.007,329.855C564.471,333.321 580.578,327.95 585.813,344.368L584.428,350.084C572.276,348.56 568.927,352.148 559.283,352.614C542.542,353.423 529.418,344.005 513.188,356.705C503.983,363.91 499.144,372.17 486.279,370.711C475.747,369.517 468.394,364.134 458.559,361.596C450.982,359.641 442.118,360.521 434.375,359.07C456.128,359.059 450.941,347.857 466.604,338.86C469.952,336.937 476.956,338.029 480.935,336.979L481.163,337.272C483.45,338.071 485.441,337.899 487.883,337.928C490.877,335.032 492.668,332.335 496.138,329.231C497.855,328.72 498.084,328.556 499.685,327.729Z" style="fill:#D5503F;"/>
            </g>
            <g transform="matrix(4.166667,0,0,4.166667,0,0)">
                <path d="M436.64,366.669C442.285,367.593 453.764,367.697 458.171,369.267C469.777,373.402 475.078,376.91 487.82,378.285C505.749,395.498 509.359,411.462 511.244,434.933C509.002,433.554 502.206,432.081 499.361,431.091C480.331,424.471 463.803,412.569 454.318,394.471C448.547,383.458 446.542,374.82 436.64,366.669Z" style="fill:#D5503F;"/>
            </g>
            <g transform="matrix(4.166667,0,0,4.166667,0,0)">
                <path d="M526.187,434.265C529.092,417.613 544.837,380.042 557.477,369.112C562.613,364.67 571.403,357.921 578.565,357.125C581.166,356.836 587.865,357.22 590.884,357.314C581.99,369.894 580.704,377.694 575.702,391.975C567.61,415.075 549.917,428.936 526.187,434.265Z" style="fill:#D5503F;"/>
            </g>
            <g transform="matrix(4.166667,0,0,4.166667,0,0)">
                <path d="M497.771,377.309C510.824,371.766 516.928,358.831 530.88,357.399C536.386,356.835 544.185,359.389 549.799,359.824C552.583,360.152 555.362,360.155 558.13,360.175C535.253,378.072 527.409,407.142 520.89,433.9C520.057,435.833 520.687,435.258 519.298,436.264C518.28,434.758 518.599,434.493 518.421,432.381C517.034,416.158 515.446,402.313 506.104,388.379C503.352,384.276 500.506,381.099 497.771,377.309Z" style="fill:#D5503F;fill-rule:nonzero;"/>
            </g>
        </g>
    </g></svg>
    <path fill="#F9F6F0" transform="translate(20.111 0)" d="M1.342 25.567V10.5H3.528V12.777L3.274 12.259Q3.873 11.323 4.89 10.79Q5.907 10.256 7.218 10.256Q8.784 10.256 10.029 11.013Q11.274 11.771 12.001 13.067Q12.728 14.363 12.728 16Q12.728 17.616 12.006 18.923Q11.285 20.229 10.039 20.987Q8.794 21.744 7.208 21.744Q5.937 21.744 4.89 21.215Q3.843 20.687 3.263 19.69L3.629 19.263V25.567ZM6.984 19.609Q7.96 19.609 8.718 19.141Q9.475 18.674 9.907 17.855Q10.339 17.037 10.339 16Q10.339 14.953 9.907 14.145Q9.475 13.336 8.718 12.864Q7.96 12.391 6.984 12.391Q6.029 12.391 5.266 12.859Q4.504 13.326 4.067 14.145Q3.629 14.963 3.629 16Q3.629 17.037 4.067 17.855Q4.504 18.674 5.266 19.141Q6.029 19.609 6.984 19.609Z M19.865 21.744Q18.269 21.744 16.963 20.997Q15.656 20.25 14.884 18.948Q14.111 17.647 14.111 15.99Q14.111 14.333 14.878 13.042Q15.646 11.75 16.947 11.003Q18.249 10.256 19.865 10.256Q21.482 10.256 22.778 10.998Q24.074 11.74 24.836 13.031Q25.599 14.323 25.599 15.99Q25.599 17.657 24.821 18.958Q24.043 20.26 22.747 21.002Q21.451 21.744 19.865 21.744ZM19.865 19.609Q20.831 19.609 21.583 19.141Q22.335 18.674 22.773 17.85Q23.21 17.027 23.21 15.99Q23.21 14.953 22.773 14.145Q22.335 13.336 21.583 12.864Q20.831 12.391 19.865 12.391Q18.899 12.391 18.142 12.864Q17.384 13.336 16.942 14.145Q16.5 14.953 16.5 15.99Q16.5 17.027 16.942 17.85Q17.384 18.674 18.142 19.141Q18.899 19.609 19.865 19.609Z M27.429 25.567V10.5H29.615V12.777L29.36 12.259Q29.96 11.323 30.977 10.79Q31.994 10.256 33.305 10.256Q34.871 10.256 36.116 11.013Q37.361 11.771 38.088 13.067Q38.815 14.363 38.815 16Q38.815 17.616 38.093 18.923Q37.372 20.229 36.126 20.987Q34.881 21.744 33.295 21.744Q32.024 21.744 30.977 21.215Q29.93 20.687 29.35 19.69L29.716 19.263V25.567ZM33.071 19.609Q34.047 19.609 34.805 19.141Q35.562 18.674 35.994 17.855Q36.426 17.037 36.426 16Q36.426 14.953 35.994 14.145Q35.562 13.336 34.805 12.864Q34.047 12.391 33.071 12.391Q32.116 12.391 31.353 12.859Q30.591 13.326 30.153 14.145Q29.716 14.963 29.716 16Q29.716 17.037 30.153 17.855Q30.591 18.674 31.353 19.141Q32.116 19.609 33.071 19.609Z M40.645 25.567V10.5H42.831V12.777L42.577 12.259Q43.177 11.323 44.193 10.79Q45.21 10.256 46.521 10.256Q48.087 10.256 49.332 11.013Q50.578 11.771 51.305 13.067Q52.031 14.363 52.031 16Q52.031 17.616 51.31 18.923Q50.588 20.229 49.342 20.987Q48.097 21.744 46.511 21.744Q45.24 21.744 44.193 21.215Q43.146 20.687 42.567 19.69L42.933 19.263V25.567ZM46.287 19.609Q47.263 19.609 48.021 19.141Q48.778 18.674 49.21 17.855Q49.642 17.037 49.642 16Q49.642 14.953 49.21 14.145Q48.778 13.336 48.021 12.864Q47.263 12.391 46.287 12.391Q45.332 12.391 44.569 12.859Q43.807 13.326 43.37 14.145Q42.933 14.963 42.933 16Q42.933 17.037 43.37 17.855Q43.807 18.674 44.569 19.141Q45.332 19.609 46.287 19.609Z M54.837 25.973Q54.431 25.973 54.034 25.907Q53.638 25.841 53.302 25.689V23.726Q53.546 23.777 53.897 23.833Q54.248 23.889 54.573 23.889Q55.518 23.889 55.976 23.472Q56.433 23.055 56.81 22.201L57.531 20.524L57.491 22.466L52.743 10.5H55.203L58.711 19.67H57.887L61.384 10.5H63.865L58.995 22.71Q58.609 23.676 58.035 24.418Q57.46 25.16 56.672 25.567Q55.884 25.973 54.837 25.973Z"/>
  </g>
  <path fill="#F9F6F0" fill-opacity="0.72" transform="translate(250.598 158)" d="M1.76 0V-15.895H7.377Q8.956 -15.895 10.153 -15.295Q11.351 -14.695 12.02 -13.588Q12.689 -12.481 12.689 -10.977Q12.689 -9.308 11.839 -8.126Q10.988 -6.945 9.537 -6.433L13.228 0H10.796L6.902 -6.891L8.3 -6.081H3.867V0ZM3.867 -8.001H7.446Q8.39 -8.001 9.094 -8.366Q9.798 -8.732 10.191 -9.406Q10.583 -10.081 10.583 -10.993Q10.583 -11.911 10.191 -12.577Q9.798 -13.244 9.094 -13.61Q8.39 -13.975 7.446 -13.975H3.867Z M20.658 0.256Q18.994 0.256 17.685 -0.533Q16.375 -1.323 15.628 -2.694Q14.882 -4.064 14.882 -5.782Q14.882 -7.516 15.62 -8.857Q16.359 -10.199 17.626 -10.972Q18.893 -11.745 20.477 -11.745Q21.752 -11.745 22.747 -11.292Q23.741 -10.839 24.438 -10.057Q25.134 -9.276 25.502 -8.289Q25.87 -7.302 25.87 -6.23Q25.87 -5.985 25.846 -5.702Q25.822 -5.419 25.768 -5.153H16.338V-6.859H24.627L23.672 -6.102Q23.869 -7.212 23.467 -8.086Q23.064 -8.961 22.277 -9.473Q21.49 -9.985 20.477 -9.985Q19.469 -9.985 18.639 -9.468Q17.81 -8.95 17.351 -8.009Q16.893 -7.067 16.989 -5.761Q16.887 -4.491 17.375 -3.544Q17.863 -2.598 18.741 -2.078Q19.618 -1.558 20.669 -1.558Q21.827 -1.558 22.619 -2.091Q23.411 -2.624 23.896 -3.446L25.56 -2.598Q25.219 -1.808 24.507 -1.16Q23.795 -0.512 22.816 -0.128Q21.837 0.256 20.658 0.256Z M28.451 0V-11.489H30.398V-9.148L30.126 -9.505Q30.542 -10.593 31.484 -11.169Q32.425 -11.745 33.599 -11.745Q34.953 -11.745 36.028 -11.001Q37.103 -10.257 37.508 -9.052L36.943 -9.014Q37.407 -10.364 38.466 -11.055Q39.525 -11.745 40.842 -11.745Q42.021 -11.745 42.992 -11.191Q43.962 -10.636 44.541 -9.66Q45.12 -8.684 45.12 -7.441V0H43.12V-6.806Q43.12 -7.761 42.778 -8.428Q42.437 -9.094 41.845 -9.46Q41.253 -9.825 40.469 -9.825Q39.706 -9.825 39.095 -9.46Q38.484 -9.094 38.135 -8.42Q37.786 -7.745 37.786 -6.806V0H35.785V-6.806Q35.785 -7.761 35.444 -8.428Q35.103 -9.094 34.511 -9.46Q33.919 -9.825 33.135 -9.825Q32.356 -9.825 31.753 -9.46Q31.15 -9.094 30.801 -8.42Q30.452 -7.745 30.452 -6.806V0Z M53.238 0.256Q51.574 0.256 50.264 -0.533Q48.955 -1.323 48.208 -2.694Q47.462 -4.064 47.462 -5.782Q47.462 -7.516 48.2 -8.857Q48.939 -10.199 50.206 -10.972Q51.473 -11.745 53.057 -11.745Q54.332 -11.745 55.326 -11.292Q56.321 -10.839 57.017 -10.057Q57.713 -9.276 58.081 -8.289Q58.449 -7.302 58.449 -6.23Q58.449 -5.985 58.425 -5.702Q58.401 -5.419 58.348 -5.153H48.918V-6.859H57.207L56.252 -6.102Q56.449 -7.212 56.046 -8.086Q55.644 -8.961 54.857 -9.473Q54.07 -9.985 53.057 -9.985Q52.049 -9.985 51.219 -9.468Q50.39 -8.95 49.931 -8.009Q49.472 -7.067 49.568 -5.761Q49.467 -4.491 49.955 -3.544Q50.443 -2.598 51.321 -2.078Q52.198 -1.558 53.249 -1.558Q54.406 -1.558 55.198 -2.091Q55.99 -2.624 56.476 -3.446L58.14 -2.598Q57.799 -1.808 57.087 -1.16Q56.375 -0.512 55.396 -0.128Q54.417 0.256 53.238 0.256Z M61.031 0V-11.489H62.978V-9.148L62.706 -9.505Q63.122 -10.593 64.063 -11.169Q65.005 -11.745 66.178 -11.745Q67.533 -11.745 68.608 -11.001Q69.683 -10.257 70.088 -9.052L69.523 -9.014Q69.987 -10.364 71.046 -11.055Q72.104 -11.745 73.422 -11.745Q74.601 -11.745 75.571 -11.191Q76.542 -10.636 77.121 -9.66Q77.7 -8.684 77.7 -7.441V0H75.699V-6.806Q75.699 -7.761 75.358 -8.428Q75.017 -9.094 74.425 -9.46Q73.833 -9.825 73.048 -9.825Q72.286 -9.825 71.675 -9.46Q71.064 -9.094 70.715 -8.42Q70.365 -7.745 70.365 -6.806V0H68.365V-6.806Q68.365 -7.761 68.024 -8.428Q67.683 -9.094 67.09 -9.46Q66.498 -9.825 65.714 -9.825Q64.936 -9.825 64.333 -9.46Q63.73 -9.094 63.381 -8.42Q63.031 -7.745 63.031 -6.806V0Z M86.479 0.256Q85.077 0.256 83.935 -0.357Q82.794 -0.971 82.191 -2.112L82.458 -2.454V0H80.511V-16.151H82.511V-9.014L82.196 -9.51Q82.852 -10.545 83.956 -11.145Q85.061 -11.745 86.485 -11.745Q88.117 -11.745 89.405 -10.959Q90.693 -10.172 91.443 -8.82Q92.192 -7.468 92.192 -5.745Q92.192 -4.043 91.445 -2.68Q90.699 -1.317 89.41 -0.531Q88.122 0.256 86.479 0.256ZM86.319 -1.664Q87.407 -1.664 88.258 -2.198Q89.109 -2.731 89.597 -3.656Q90.085 -4.582 90.085 -5.745Q90.085 -6.923 89.597 -7.838Q89.109 -8.753 88.258 -9.289Q87.407 -9.825 86.319 -9.825Q85.242 -9.825 84.378 -9.292Q83.514 -8.758 83.012 -7.833Q82.511 -6.907 82.511 -5.745Q82.511 -4.582 83.012 -3.656Q83.514 -2.731 84.378 -2.198Q85.242 -1.664 86.319 -1.664Z M100.092 0.256Q98.427 0.256 97.118 -0.533Q95.808 -1.323 95.062 -2.694Q94.315 -4.064 94.315 -5.782Q94.315 -7.516 95.054 -8.857Q95.792 -10.199 97.059 -10.972Q98.326 -11.745 99.91 -11.745Q101.185 -11.745 102.18 -11.292Q103.175 -10.839 103.871 -10.057Q104.567 -9.276 104.935 -8.289Q105.303 -7.302 105.303 -6.23Q105.303 -5.985 105.279 -5.702Q105.255 -5.419 105.202 -5.153H95.771V-6.859H104.06L103.105 -6.102Q103.303 -7.212 102.9 -8.086Q102.497 -8.961 101.71 -9.473Q100.924 -9.985 99.91 -9.985Q98.902 -9.985 98.073 -9.468Q97.243 -8.95 96.785 -8.009Q96.326 -7.067 96.422 -5.761Q96.321 -4.491 96.809 -3.544Q97.297 -2.598 98.174 -2.078Q99.051 -1.558 100.102 -1.558Q101.26 -1.558 102.052 -2.091Q102.844 -2.624 103.329 -3.446L104.994 -2.598Q104.652 -1.808 103.94 -1.16Q103.228 -0.512 102.249 -0.128Q101.27 0.256 100.092 0.256Z M107.885 0V-11.489H109.831V-9.382L109.618 -9.692Q110.018 -10.668 110.856 -11.151Q111.693 -11.633 112.877 -11.633H113.592V-9.74H112.589Q111.368 -9.74 110.626 -8.985Q109.885 -8.23 109.885 -6.849V0Z M121.699 0 117.752 -11.489H119.939L123.076 -1.883L122.308 -1.888L125.38 -11.489H127.273L130.34 -1.888L129.572 -1.883L132.725 -11.489H134.901L130.949 0H129.055L126.02 -9.596H126.633L123.593 0Z M136.667 0V-16.151H138.667V-9.249L138.299 -9.441Q138.72 -10.535 139.675 -11.14Q140.63 -11.745 141.894 -11.745Q143.137 -11.745 144.113 -11.191Q145.089 -10.636 145.652 -9.66Q146.214 -8.684 146.214 -7.441V0H144.214V-6.806Q144.214 -7.761 143.859 -8.428Q143.505 -9.094 142.881 -9.46Q142.256 -9.825 141.456 -9.825Q140.662 -9.825 140.027 -9.46Q139.392 -9.094 139.029 -8.42Q138.667 -7.745 138.667 -6.806V0Z M152.423 0.256Q151.292 0.256 150.423 -0.157Q149.553 -0.571 149.063 -1.304Q148.572 -2.038 148.572 -3.003Q148.572 -3.92 148.972 -4.662Q149.372 -5.403 150.212 -5.915Q151.052 -6.427 152.343 -6.641L156.594 -7.345V-5.67L152.775 -5.025Q151.676 -4.833 151.178 -4.323Q150.679 -3.814 150.679 -3.078Q150.679 -2.368 151.236 -1.894Q151.794 -1.419 152.663 -1.419Q153.74 -1.419 154.546 -1.88Q155.351 -2.342 155.802 -3.128Q156.253 -3.915 156.253 -4.875V-7.809Q156.253 -8.742 155.562 -9.334Q154.871 -9.926 153.751 -9.926Q152.754 -9.926 151.999 -9.417Q151.244 -8.908 150.881 -8.092L149.153 -8.988Q149.479 -9.777 150.185 -10.401Q150.892 -11.025 151.826 -11.385Q152.759 -11.745 153.788 -11.745Q155.101 -11.745 156.111 -11.244Q157.122 -10.743 157.688 -9.857Q158.253 -8.972 158.253 -7.809V0H156.306V-2.182L156.663 -2.038Q156.311 -1.365 155.685 -0.848Q155.058 -0.331 154.234 -0.037Q153.41 0.256 152.423 0.256Z M165.993 0.128Q164.312 0.128 163.398 -0.829Q162.483 -1.787 162.483 -3.547V-9.596H160.408V-11.489H160.835Q161.603 -11.489 162.043 -11.961Q162.483 -12.433 162.483 -13.202V-14.135H164.483V-11.489H167.054V-9.596H164.483V-3.6Q164.483 -3.019 164.664 -2.592Q164.846 -2.166 165.27 -1.926Q165.694 -1.686 166.387 -1.686Q166.553 -1.686 166.777 -1.707Q167.001 -1.728 167.182 -1.75V0Q166.91 0.059 166.569 0.093Q166.227 0.128 165.993 0.128Z M173.449 0V-11.489H175.396V-9.148L175.124 -9.505Q175.54 -10.593 176.482 -11.169Q177.423 -11.745 178.597 -11.745Q179.952 -11.745 181.026 -11.001Q182.101 -10.257 182.506 -9.052L181.941 -9.014Q182.405 -10.364 183.464 -11.055Q184.523 -11.745 185.84 -11.745Q187.019 -11.745 187.99 -11.191Q188.961 -10.636 189.539 -9.66Q190.118 -8.684 190.118 -7.441V0H188.118V-6.806Q188.118 -7.761 187.776 -8.428Q187.435 -9.094 186.843 -9.46Q186.251 -9.825 185.467 -9.825Q184.704 -9.825 184.093 -9.46Q183.483 -9.094 183.133 -8.42Q182.784 -7.745 182.784 -6.806V0H180.784V-6.806Q180.784 -7.761 180.442 -8.428Q180.101 -9.094 179.509 -9.46Q178.917 -9.825 178.133 -9.825Q177.354 -9.825 176.751 -9.46Q176.148 -9.094 175.799 -8.42Q175.45 -7.745 175.45 -6.806V0Z M196.311 0.256Q195.18 0.256 194.311 -0.157Q193.441 -0.571 192.95 -1.304Q192.46 -2.038 192.46 -3.003Q192.46 -3.92 192.86 -4.662Q193.26 -5.403 194.1 -5.915Q194.94 -6.427 196.231 -6.641L200.482 -7.345V-5.67L196.663 -5.025Q195.564 -4.833 195.065 -4.323Q194.567 -3.814 194.567 -3.078Q194.567 -2.368 195.124 -1.894Q195.681 -1.419 196.551 -1.419Q197.628 -1.419 198.434 -1.88Q199.239 -2.342 199.69 -3.128Q200.141 -3.915 200.141 -4.875V-7.809Q200.141 -8.742 199.45 -9.334Q198.759 -9.926 197.639 -9.926Q196.641 -9.926 195.887 -9.417Q195.132 -8.908 194.769 -8.092L193.041 -8.988Q193.366 -9.777 194.073 -10.401Q194.78 -11.025 195.713 -11.385Q196.647 -11.745 197.676 -11.745Q198.988 -11.745 199.999 -11.244Q201.01 -10.743 201.575 -9.857Q202.141 -8.972 202.141 -7.809V0H200.194V-2.182L200.551 -2.038Q200.199 -1.365 199.572 -0.848Q198.946 -0.331 198.122 -0.037Q197.298 0.256 196.311 0.256Z M209.88 0.128Q208.2 0.128 207.285 -0.829Q206.371 -1.787 206.371 -3.547V-9.596H204.296V-11.489H204.722Q205.49 -11.489 205.931 -11.961Q206.371 -12.433 206.371 -13.202V-14.135H208.371V-11.489H210.942V-9.596H208.371V-3.6Q208.371 -3.019 208.552 -2.592Q208.734 -2.166 209.158 -1.926Q209.582 -1.686 210.275 -1.686Q210.44 -1.686 210.664 -1.707Q210.888 -1.728 211.07 -1.75V0Q210.798 0.059 210.456 0.093Q210.115 0.128 209.88 0.128Z M218.329 0.128Q216.649 0.128 215.734 -0.829Q214.82 -1.787 214.82 -3.547V-9.596H212.745V-11.489H213.171Q213.939 -11.489 214.38 -11.961Q214.82 -12.433 214.82 -13.202V-14.135H216.82V-11.489H219.391V-9.596H216.82V-3.6Q216.82 -3.019 217.001 -2.592Q217.183 -2.166 217.607 -1.926Q218.031 -1.686 218.724 -1.686Q218.889 -1.686 219.113 -1.707Q219.337 -1.728 219.519 -1.75V0Q219.247 0.059 218.905 0.093Q218.564 0.128 218.329 0.128Z M227.402 0.256Q225.738 0.256 224.429 -0.533Q223.119 -1.323 222.372 -2.694Q221.626 -4.064 221.626 -5.782Q221.626 -7.516 222.364 -8.857Q223.103 -10.199 224.37 -10.972Q225.637 -11.745 227.221 -11.745Q228.496 -11.745 229.491 -11.292Q230.485 -10.839 231.181 -10.057Q231.878 -9.276 232.246 -8.289Q232.614 -7.302 232.614 -6.23Q232.614 -5.985 232.59 -5.702Q232.566 -5.419 232.512 -5.153H223.082V-6.859H231.371L230.416 -6.102Q230.613 -7.212 230.211 -8.086Q229.808 -8.961 229.021 -9.473Q228.234 -9.985 227.221 -9.985Q226.213 -9.985 225.383 -9.468Q224.554 -8.95 224.095 -8.009Q223.637 -7.067 223.733 -5.761Q223.631 -4.491 224.119 -3.544Q224.607 -2.598 225.485 -2.078Q226.362 -1.558 227.413 -1.558Q228.571 -1.558 229.363 -2.091Q230.155 -2.624 230.64 -3.446L232.304 -2.598Q231.963 -1.808 231.251 -1.16Q230.539 -0.512 229.56 -0.128Q228.581 0.256 227.402 0.256Z M235.195 0V-11.489H237.142V-9.382L236.929 -9.692Q237.329 -10.668 238.166 -11.151Q239.004 -11.633 240.188 -11.633H240.903V-9.74H239.9Q238.678 -9.74 237.937 -8.985Q237.196 -8.23 237.196 -6.849V0Z M246.781 0.256Q245.068 0.256 243.786 -0.595Q242.503 -1.446 241.959 -2.902L243.554 -3.659Q244.034 -2.64 244.89 -2.043Q245.746 -1.446 246.781 -1.446Q247.719 -1.446 248.338 -1.891Q248.957 -2.336 248.957 -3.067Q248.957 -3.579 248.669 -3.888Q248.381 -4.198 247.981 -4.379Q247.581 -4.561 247.229 -4.651L245.5 -5.142Q243.959 -5.579 243.239 -6.414Q242.519 -7.249 242.519 -8.358Q242.519 -9.382 243.042 -10.145Q243.564 -10.908 244.471 -11.327Q245.378 -11.745 246.503 -11.745Q248.018 -11.745 249.229 -10.977Q250.44 -10.209 250.941 -8.838L249.325 -8.081Q248.941 -8.982 248.173 -9.5Q247.405 -10.017 246.455 -10.017Q245.58 -10.017 245.06 -9.585Q244.54 -9.153 244.54 -8.481Q244.54 -7.99 244.796 -7.686Q245.052 -7.382 245.42 -7.217Q245.788 -7.051 246.119 -6.955L248.007 -6.401Q249.41 -5.99 250.186 -5.134Q250.962 -4.278 250.962 -3.099Q250.962 -2.123 250.429 -1.36Q249.896 -0.597 248.957 -0.171Q248.018 0.256 246.781 0.256Z M254.376 0V-2.56H256.456V0Z"/>
</svg>
