<svg xmlns="http://www.w3.org/2000/svg" viewBox="0 0 760 200" fill="none" role="img" aria-label="poppy: remember what matters">
  <g transform="translate(214.95 18) scale(3.4)">
    <g transform="translate(2 4)">
  <path class="fgf" fill="#F9F6F0" d="M11.868 10.785 C13.218 10.554 13.667 11.716 13.894 12.811 C14.125 13.929 13.006 14.836 11.868 14.836 C11.193 14.836 9.843 13.929 9.843 12.811 C9.843 11.693 10.767 10.974 11.868 10.785 Z"/>
<path class="fgf fgs" fill="#F9F6F0" stroke="#F9F6F0" stroke-width="0.13" stroke-linejoin="round" d="M12.649 6.013 C12.649 6.013 12.607 5.723 12.618 6.452 C12.626 6.977 12.715 8.364 12.618 9.195 C12.348 11.515 12.649 11.695 12.649 11.695 L11.118 11.695 C11.118 11.695 11.577 10.243 11.345 8.833 C11.192 7.899 11.118 6.013 11.118 6.013 L12.649 6.013 Z M13.075 11.563 C13.075 11.563 12.810 11.687 13.505 11.464 C14.004 11.305 15.306 10.817 16.129 10.669 C18.428 10.255 18.513 9.915 18.513 9.915 L18.957 11.379 C18.957 11.379 17.435 11.362 16.153 11.992 C15.303 12.410 13.519 13.027 13.519 13.027 L13.075 11.563 Z M5.206 9.654 C5.206 9.654 4.917 9.604 5.615 9.818 C6.116 9.972 7.463 10.315 8.224 10.663 C10.348 11.634 10.612 11.403 10.612 11.403 L10.141 12.859 C10.141 12.859 8.901 11.976 7.488 11.762 C6.552 11.621 4.735 11.110 4.735 11.110 L5.206 9.654 Z M15.628 19.026 C15.628 19.026 15.835 19.234 15.390 18.656 C15.070 18.240 14.170 17.181 13.751 16.457 C12.581 14.435 12.232 14.470 12.232 14.470 L13.459 13.556 C13.459 13.556 13.959 14.994 14.987 15.986 C15.669 16.643 16.855 18.112 16.855 18.112 L15.628 19.026 Z M7.484 18.477 C7.484 18.477 7.376 18.749 7.730 18.112 C7.986 17.653 8.602 16.408 9.102 15.737 C10.496 13.862 10.325 13.556 10.325 13.556 L11.651 14.321 C11.651 14.321 10.528 15.349 10.023 16.686 C9.689 17.572 8.810 19.242 8.810 19.242 L7.484 18.477 Z"/>
<path fill="#D5503F" d="M15.131 17.325 C15.849 16.762 17.275 17.357 18.111 18.617 C19.231 20.302 19.137 21.286 18.420 21.849 C17.663 22.359 16.682 22.006 15.439 20.557 C14.832 19.850 14.413 17.888 15.131 17.325 Z M9.193 17.556 C8.474 16.993 7.048 17.588 6.212 18.848 C5.092 20.533 5.186 21.517 5.903 22.080 C6.661 22.591 7.642 22.238 8.884 20.789 C9.491 20.082 9.910 18.120 9.193 17.556 Z M6.645 11.083 C6.287 11.923 4.752 12.090 3.411 11.390 C1.617 10.455 1.224 9.548 1.580 8.709 C1.997 7.896 3.027 7.732 4.814 8.401 C5.687 8.727 7.001 10.243 6.645 11.083 Z M11.745 1.702 C12.655 1.627 13.518 2.909 13.524 4.421 C13.532 6.444 12.913 7.214 12.004 7.290 C11.091 7.299 10.466 6.465 10.225 4.572 C10.107 3.647 10.836 1.778 11.745 1.702 Z M17.442 11.267 C16.995 10.471 17.801 9.153 19.173 8.518 C21.010 7.669 21.968 7.911 22.415 8.706 C22.804 9.533 22.305 10.448 20.684 11.455 C19.892 11.947 17.889 12.062 17.442 11.267 Z"/>
    </g>
    <path fill="#F9F6F0" transform="translate(33 0)" d="M1.34 25.57V10.5H3.53V12.78L3.27 12.26Q3.87 11.32 4.89 10.79Q5.91 10.26 7.22 10.26Q8.78 10.26 10.03 11.01Q11.27 11.77 12 13.07Q12.73 14.36 12.73 16Q12.73 17.62 12.01 18.92Q11.28 20.23 10.04 20.99Q8.79 21.74 7.21 21.74Q5.94 21.74 4.89 21.22Q3.84 20.69 3.26 19.69L3.63 19.26V25.57ZM6.98 19.61Q7.96 19.61 8.72 19.14Q9.48 18.67 9.91 17.86Q10.34 17.04 10.34 16Q10.34 14.95 9.91 14.14Q9.48 13.34 8.72 12.86Q7.96 12.39 6.98 12.39Q6.03 12.39 5.27 12.86Q4.5 13.33 4.07 14.14Q3.63 14.96 3.63 16Q3.63 17.04 4.07 17.86Q4.5 18.67 5.27 19.14Q6.03 19.61 6.98 19.61Z M19.87 21.74Q18.27 21.74 16.96 21Q15.66 20.25 14.88 18.95Q14.11 17.65 14.11 15.99Q14.11 14.33 14.88 13.04Q15.65 11.75 16.95 11Q18.25 10.26 19.87 10.26Q21.48 10.26 22.78 11Q24.07 11.74 24.84 13.03Q25.6 14.32 25.6 15.99Q25.6 17.66 24.82 18.96Q24.04 20.26 22.75 21Q21.45 21.74 19.87 21.74ZM19.87 19.61Q20.83 19.61 21.58 19.14Q22.34 18.67 22.77 17.85Q23.21 17.03 23.21 15.99Q23.21 14.95 22.77 14.14Q22.34 13.34 21.58 12.86Q20.83 12.39 19.87 12.39Q18.9 12.39 18.14 12.86Q17.38 13.34 16.94 14.14Q16.5 14.95 16.5 15.99Q16.5 17.03 16.94 17.85Q17.38 18.67 18.14 19.14Q18.9 19.61 19.87 19.61Z M27.43 25.57V10.5H29.61V12.78L29.36 12.26Q29.96 11.32 30.98 10.79Q31.99 10.26 33.3 10.26Q34.87 10.26 36.12 11.01Q37.36 11.77 38.09 13.07Q38.82 14.36 38.82 16Q38.82 17.62 38.09 18.92Q37.37 20.23 36.13 20.99Q34.88 21.74 33.29 21.74Q32.02 21.74 30.98 21.22Q29.93 20.69 29.35 19.69L29.72 19.26V25.57ZM33.07 19.61Q34.05 19.61 34.8 19.14Q35.56 18.67 35.99 17.86Q36.43 17.04 36.43 16Q36.43 14.95 35.99 14.14Q35.56 13.34 34.8 12.86Q34.05 12.39 33.07 12.39Q32.12 12.39 31.35 12.86Q30.59 13.33 30.15 14.14Q29.72 14.96 29.72 16Q29.72 17.04 30.15 17.86Q30.59 18.67 31.35 19.14Q32.12 19.61 33.07 19.61Z M40.65 25.57V10.5H42.83V12.78L42.58 12.26Q43.18 11.32 44.19 10.79Q45.21 10.26 46.52 10.26Q48.09 10.26 49.33 11.01Q50.58 11.77 51.3 13.07Q52.03 14.36 52.03 16Q52.03 17.62 51.31 18.92Q50.59 20.23 49.34 20.99Q48.1 21.74 46.51 21.74Q45.24 21.74 44.19 21.22Q43.15 20.69 42.57 19.69L42.93 19.26V25.57ZM46.29 19.61Q47.26 19.61 48.02 19.14Q48.78 18.67 49.21 17.86Q49.64 17.04 49.64 16Q49.64 14.95 49.21 14.14Q48.78 13.34 48.02 12.86Q47.26 12.39 46.29 12.39Q45.33 12.39 44.57 12.86Q43.81 13.33 43.37 14.14Q42.93 14.96 42.93 16Q42.93 17.04 43.37 17.86Q43.81 18.67 44.57 19.14Q45.33 19.61 46.29 19.61Z M54.84 25.97Q54.43 25.97 54.03 25.91Q53.64 25.84 53.3 25.69V23.73Q53.55 23.78 53.9 23.83Q54.25 23.89 54.57 23.89Q55.52 23.89 55.98 23.47Q56.43 23.06 56.81 22.2L57.53 20.52L57.49 22.47L52.74 10.5H55.2L58.71 19.67H57.89L61.38 10.5H63.87L59 22.71Q58.61 23.68 58.03 24.42Q57.46 25.16 56.67 25.57Q55.88 25.97 54.84 25.97Z"/>
  </g>
  <path fill="#F9F6F0" fill-opacity="0.72" transform="translate(250.6 168)" d="M1.76 0V-15.9H7.38Q8.96 -15.9 10.15 -15.3Q11.35 -14.7 12.02 -13.59Q12.69 -12.48 12.69 -10.98Q12.69 -9.31 11.84 -8.13Q10.99 -6.94 9.54 -6.43L13.23 0H10.8L6.9 -6.89L8.3 -6.08H3.87V0ZM3.87 -8H7.45Q8.39 -8 9.09 -8.37Q9.8 -8.73 10.19 -9.41Q10.58 -10.08 10.58 -10.99Q10.58 -11.91 10.19 -12.58Q9.8 -13.24 9.09 -13.61Q8.39 -13.97 7.45 -13.97H3.87Z M20.66 0.26Q18.99 0.26 17.68 -0.53Q16.38 -1.32 15.63 -2.69Q14.88 -4.06 14.88 -5.78Q14.88 -7.52 15.62 -8.86Q16.36 -10.2 17.63 -10.97Q18.89 -11.75 20.48 -11.75Q21.75 -11.75 22.75 -11.29Q23.74 -10.84 24.44 -10.06Q25.13 -9.28 25.5 -8.29Q25.87 -7.3 25.87 -6.23Q25.87 -5.98 25.85 -5.7Q25.82 -5.42 25.77 -5.15H16.34V-6.86H24.63L23.67 -6.1Q23.87 -7.21 23.47 -8.09Q23.06 -8.96 22.28 -9.47Q21.49 -9.99 20.48 -9.99Q19.47 -9.99 18.64 -9.47Q17.81 -8.95 17.35 -8.01Q16.89 -7.07 16.99 -5.76Q16.89 -4.49 17.38 -3.54Q17.86 -2.6 18.74 -2.08Q19.62 -1.56 20.67 -1.56Q21.83 -1.56 22.62 -2.09Q23.41 -2.62 23.9 -3.45L25.56 -2.6Q25.22 -1.81 24.51 -1.16Q23.79 -0.51 22.82 -0.13Q21.84 0.26 20.66 0.26Z M28.45 0V-11.49H30.4V-9.15L30.13 -9.51Q30.54 -10.59 31.48 -11.17Q32.43 -11.75 33.6 -11.75Q34.95 -11.75 36.03 -11Q37.1 -10.26 37.51 -9.05L36.94 -9.01Q37.41 -10.36 38.47 -11.05Q39.52 -11.75 40.84 -11.75Q42.02 -11.75 42.99 -11.19Q43.96 -10.64 44.54 -9.66Q45.12 -8.68 45.12 -7.44V0H43.12V-6.81Q43.12 -7.76 42.78 -8.43Q42.44 -9.09 41.84 -9.46Q41.25 -9.83 40.47 -9.83Q39.71 -9.83 39.1 -9.46Q38.48 -9.09 38.14 -8.42Q37.79 -7.74 37.79 -6.81V0H35.79V-6.81Q35.79 -7.76 35.44 -8.43Q35.1 -9.09 34.51 -9.46Q33.92 -9.83 33.13 -9.83Q32.36 -9.83 31.75 -9.46Q31.15 -9.09 30.8 -8.42Q30.45 -7.74 30.45 -6.81V0Z M53.24 0.26Q51.57 0.26 50.26 -0.53Q48.96 -1.32 48.21 -2.69Q47.46 -4.06 47.46 -5.78Q47.46 -7.52 48.2 -8.86Q48.94 -10.2 50.21 -10.97Q51.47 -11.75 53.06 -11.75Q54.33 -11.75 55.33 -11.29Q56.32 -10.84 57.02 -10.06Q57.71 -9.28 58.08 -8.29Q58.45 -7.3 58.45 -6.23Q58.45 -5.98 58.43 -5.7Q58.4 -5.42 58.35 -5.15H48.92V-6.86H57.21L56.25 -6.1Q56.45 -7.21 56.05 -8.09Q55.64 -8.96 54.86 -9.47Q54.07 -9.99 53.06 -9.99Q52.05 -9.99 51.22 -9.47Q50.39 -8.95 49.93 -8.01Q49.47 -7.07 49.57 -5.76Q49.47 -4.49 49.96 -3.54Q50.44 -2.6 51.32 -2.08Q52.2 -1.56 53.25 -1.56Q54.41 -1.56 55.2 -2.09Q55.99 -2.62 56.48 -3.45L58.14 -2.6Q57.8 -1.81 57.09 -1.16Q56.37 -0.51 55.4 -0.13Q54.42 0.26 53.24 0.26Z M61.03 0V-11.49H62.98V-9.15L62.71 -9.51Q63.12 -10.59 64.06 -11.17Q65 -11.75 66.18 -11.75Q67.53 -11.75 68.61 -11Q69.68 -10.26 70.09 -9.05L69.52 -9.01Q69.99 -10.36 71.05 -11.05Q72.1 -11.75 73.42 -11.75Q74.6 -11.75 75.57 -11.19Q76.54 -10.64 77.12 -9.66Q77.7 -8.68 77.7 -7.44V0H75.7V-6.81Q75.7 -7.76 75.36 -8.43Q75.02 -9.09 74.42 -9.46Q73.83 -9.83 73.05 -9.83Q72.29 -9.83 71.67 -9.46Q71.06 -9.09 70.71 -8.42Q70.37 -7.74 70.37 -6.81V0H68.37V-6.81Q68.37 -7.76 68.02 -8.43Q67.68 -9.09 67.09 -9.46Q66.5 -9.83 65.71 -9.83Q64.94 -9.83 64.33 -9.46Q63.73 -9.09 63.38 -8.42Q63.03 -7.74 63.03 -6.81V0Z M86.48 0.26Q85.08 0.26 83.94 -0.36Q82.79 -0.97 82.19 -2.11L82.46 -2.45V0H80.51V-16.15H82.51V-9.01L82.2 -9.51Q82.85 -10.55 83.96 -11.15Q85.06 -11.75 86.48 -11.75Q88.12 -11.75 89.41 -10.96Q90.69 -10.17 91.44 -8.82Q92.19 -7.47 92.19 -5.74Q92.19 -4.04 91.45 -2.68Q90.7 -1.32 89.41 -0.53Q88.12 0.26 86.48 0.26ZM86.32 -1.66Q87.41 -1.66 88.26 -2.2Q89.11 -2.73 89.6 -3.66Q90.09 -4.58 90.09 -5.74Q90.09 -6.92 89.6 -7.84Q89.11 -8.75 88.26 -9.29Q87.41 -9.83 86.32 -9.83Q85.24 -9.83 84.38 -9.29Q83.51 -8.76 83.01 -7.83Q82.51 -6.91 82.51 -5.74Q82.51 -4.58 83.01 -3.66Q83.51 -2.73 84.38 -2.2Q85.24 -1.66 86.32 -1.66Z M100.09 0.26Q98.43 0.26 97.12 -0.53Q95.81 -1.32 95.06 -2.69Q94.31 -4.06 94.31 -5.78Q94.31 -7.52 95.05 -8.86Q95.79 -10.2 97.06 -10.97Q98.33 -11.75 99.91 -11.75Q101.19 -11.75 102.18 -11.29Q103.17 -10.84 103.87 -10.06Q104.57 -9.28 104.93 -8.29Q105.3 -7.3 105.3 -6.23Q105.3 -5.98 105.28 -5.7Q105.25 -5.42 105.2 -5.15H95.77V-6.86H104.06L103.11 -6.1Q103.3 -7.21 102.9 -8.09Q102.5 -8.96 101.71 -9.47Q100.92 -9.99 99.91 -9.99Q98.9 -9.99 98.07 -9.47Q97.24 -8.95 96.78 -8.01Q96.33 -7.07 96.42 -5.76Q96.32 -4.49 96.81 -3.54Q97.3 -2.6 98.17 -2.08Q99.05 -1.56 100.1 -1.56Q101.26 -1.56 102.05 -2.09Q102.84 -2.62 103.33 -3.45L104.99 -2.6Q104.65 -1.81 103.94 -1.16Q103.23 -0.51 102.25 -0.13Q101.27 0.26 100.09 0.26Z M107.88 0V-11.49H109.83V-9.38L109.62 -9.69Q110.02 -10.67 110.86 -11.15Q111.69 -11.63 112.88 -11.63H113.59V-9.74H112.59Q111.37 -9.74 110.63 -8.99Q109.88 -8.23 109.88 -6.85V0Z M121.7 0 117.75 -11.49H119.94L123.08 -1.88L122.31 -1.89L125.38 -11.49H127.27L130.34 -1.89L129.57 -1.88L132.72 -11.49H134.9L130.95 0H129.05L126.02 -9.6H126.63L123.59 0Z M136.67 0V-16.15H138.67V-9.25L138.3 -9.44Q138.72 -10.53 139.67 -11.14Q140.63 -11.75 141.89 -11.75Q143.14 -11.75 144.11 -11.19Q145.09 -10.64 145.65 -9.66Q146.21 -8.68 146.21 -7.44V0H144.21V-6.81Q144.21 -7.76 143.86 -8.43Q143.5 -9.09 142.88 -9.46Q142.26 -9.83 141.46 -9.83Q140.66 -9.83 140.03 -9.46Q139.39 -9.09 139.03 -8.42Q138.67 -7.74 138.67 -6.81V0Z M152.42 0.26Q151.29 0.26 150.42 -0.16Q149.55 -0.57 149.06 -1.3Q148.57 -2.04 148.57 -3Q148.57 -3.92 148.97 -4.66Q149.37 -5.4 150.21 -5.92Q151.05 -6.43 152.34 -6.64L156.59 -7.34V-5.67L152.78 -5.02Q151.68 -4.83 151.18 -4.32Q150.68 -3.81 150.68 -3.08Q150.68 -2.37 151.24 -1.89Q151.79 -1.42 152.66 -1.42Q153.74 -1.42 154.55 -1.88Q155.35 -2.34 155.8 -3.13Q156.25 -3.92 156.25 -4.88V-7.81Q156.25 -8.74 155.56 -9.33Q154.87 -9.93 153.75 -9.93Q152.75 -9.93 152 -9.42Q151.24 -8.91 150.88 -8.09L149.15 -8.99Q149.48 -9.78 150.19 -10.4Q150.89 -11.03 151.83 -11.39Q152.76 -11.75 153.79 -11.75Q155.1 -11.75 156.11 -11.24Q157.12 -10.74 157.69 -9.86Q158.25 -8.97 158.25 -7.81V0H156.31V-2.18L156.66 -2.04Q156.31 -1.37 155.68 -0.85Q155.06 -0.33 154.23 -0.04Q153.41 0.26 152.42 0.26Z M165.99 0.13Q164.31 0.13 163.4 -0.83Q162.48 -1.79 162.48 -3.55V-9.6H160.41V-11.49H160.83Q161.6 -11.49 162.04 -11.96Q162.48 -12.43 162.48 -13.2V-14.13H164.48V-11.49H167.05V-9.6H164.48V-3.6Q164.48 -3.02 164.66 -2.59Q164.85 -2.17 165.27 -1.93Q165.69 -1.69 166.39 -1.69Q166.55 -1.69 166.78 -1.71Q167 -1.73 167.18 -1.75V0Q166.91 0.06 166.57 0.09Q166.23 0.13 165.99 0.13Z M173.45 0V-11.49H175.4V-9.15L175.12 -9.51Q175.54 -10.59 176.48 -11.17Q177.42 -11.75 178.6 -11.75Q179.95 -11.75 181.03 -11Q182.1 -10.26 182.51 -9.05L181.94 -9.01Q182.41 -10.36 183.46 -11.05Q184.52 -11.75 185.84 -11.75Q187.02 -11.75 187.99 -11.19Q188.96 -10.64 189.54 -9.66Q190.12 -8.68 190.12 -7.44V0H188.12V-6.81Q188.12 -7.76 187.78 -8.43Q187.44 -9.09 186.84 -9.46Q186.25 -9.83 185.47 -9.83Q184.7 -9.83 184.09 -9.46Q183.48 -9.09 183.13 -8.42Q182.78 -7.74 182.78 -6.81V0H180.78V-6.81Q180.78 -7.76 180.44 -8.43Q180.1 -9.09 179.51 -9.46Q178.92 -9.83 178.13 -9.83Q177.35 -9.83 176.75 -9.46Q176.15 -9.09 175.8 -8.42Q175.45 -7.74 175.45 -6.81V0Z M196.31 0.26Q195.18 0.26 194.31 -0.16Q193.44 -0.57 192.95 -1.3Q192.46 -2.04 192.46 -3Q192.46 -3.92 192.86 -4.66Q193.26 -5.4 194.1 -5.92Q194.94 -6.43 196.23 -6.64L200.48 -7.34V-5.67L196.66 -5.02Q195.56 -4.83 195.07 -4.32Q194.57 -3.81 194.57 -3.08Q194.57 -2.37 195.12 -1.89Q195.68 -1.42 196.55 -1.42Q197.63 -1.42 198.43 -1.88Q199.24 -2.34 199.69 -3.13Q200.14 -3.92 200.14 -4.88V-7.81Q200.14 -8.74 199.45 -9.33Q198.76 -9.93 197.64 -9.93Q196.64 -9.93 195.89 -9.42Q195.13 -8.91 194.77 -8.09L193.04 -8.99Q193.37 -9.78 194.07 -10.4Q194.78 -11.03 195.71 -11.39Q196.65 -11.75 197.68 -11.75Q198.99 -11.75 200 -11.24Q201.01 -10.74 201.58 -9.86Q202.14 -8.97 202.14 -7.81V0H200.19V-2.18L200.55 -2.04Q200.2 -1.37 199.57 -0.85Q198.95 -0.33 198.12 -0.04Q197.3 0.26 196.31 0.26Z M209.88 0.13Q208.2 0.13 207.29 -0.83Q206.37 -1.79 206.37 -3.55V-9.6H204.3V-11.49H204.72Q205.49 -11.49 205.93 -11.96Q206.37 -12.43 206.37 -13.2V-14.13H208.37V-11.49H210.94V-9.6H208.37V-3.6Q208.37 -3.02 208.55 -2.59Q208.73 -2.17 209.16 -1.93Q209.58 -1.69 210.28 -1.69Q210.44 -1.69 210.66 -1.71Q210.89 -1.73 211.07 -1.75V0Q210.8 0.06 210.46 0.09Q210.12 0.13 209.88 0.13Z M218.33 0.13Q216.65 0.13 215.73 -0.83Q214.82 -1.79 214.82 -3.55V-9.6H212.74V-11.49H213.17Q213.94 -11.49 214.38 -11.96Q214.82 -12.43 214.82 -13.2V-14.13H216.82V-11.49H219.39V-9.6H216.82V-3.6Q216.82 -3.02 217 -2.59Q217.18 -2.17 217.61 -1.93Q218.03 -1.69 218.72 -1.69Q218.89 -1.69 219.11 -1.71Q219.34 -1.73 219.52 -1.75V0Q219.25 0.06 218.91 0.09Q218.56 0.13 218.33 0.13Z M227.4 0.26Q225.74 0.26 224.43 -0.53Q223.12 -1.32 222.37 -2.69Q221.63 -4.06 221.63 -5.78Q221.63 -7.52 222.36 -8.86Q223.1 -10.2 224.37 -10.97Q225.64 -11.75 227.22 -11.75Q228.5 -11.75 229.49 -11.29Q230.49 -10.84 231.18 -10.06Q231.88 -9.28 232.25 -8.29Q232.61 -7.3 232.61 -6.23Q232.61 -5.98 232.59 -5.7Q232.57 -5.42 232.51 -5.15H223.08V-6.86H231.37L230.42 -6.1Q230.61 -7.21 230.21 -8.09Q229.81 -8.96 229.02 -9.47Q228.23 -9.99 227.22 -9.99Q226.21 -9.99 225.38 -9.47Q224.55 -8.95 224.1 -8.01Q223.64 -7.07 223.73 -5.76Q223.63 -4.49 224.12 -3.54Q224.61 -2.6 225.48 -2.08Q226.36 -1.56 227.41 -1.56Q228.57 -1.56 229.36 -2.09Q230.15 -2.62 230.64 -3.45L232.3 -2.6Q231.96 -1.81 231.25 -1.16Q230.54 -0.51 229.56 -0.13Q228.58 0.26 227.4 0.26Z M235.2 0V-11.49H237.14V-9.38L236.93 -9.69Q237.33 -10.67 238.17 -11.15Q239 -11.63 240.19 -11.63H240.9V-9.74H239.9Q238.68 -9.74 237.94 -8.99Q237.2 -8.23 237.2 -6.85V0Z M246.78 0.26Q245.07 0.26 243.79 -0.59Q242.5 -1.45 241.96 -2.9L243.55 -3.66Q244.03 -2.64 244.89 -2.04Q245.75 -1.45 246.78 -1.45Q247.72 -1.45 248.34 -1.89Q248.96 -2.34 248.96 -3.07Q248.96 -3.58 248.67 -3.89Q248.38 -4.2 247.98 -4.38Q247.58 -4.56 247.23 -4.65L245.5 -5.14Q243.96 -5.58 243.24 -6.41Q242.52 -7.25 242.52 -8.36Q242.52 -9.38 243.04 -10.15Q243.56 -10.91 244.47 -11.33Q245.38 -11.75 246.5 -11.75Q248.02 -11.75 249.23 -10.98Q250.44 -10.21 250.94 -8.84L249.32 -8.08Q248.94 -8.98 248.17 -9.5Q247.4 -10.02 246.46 -10.02Q245.58 -10.02 245.06 -9.59Q244.54 -9.15 244.54 -8.48Q244.54 -7.99 244.8 -7.69Q245.05 -7.38 245.42 -7.22Q245.79 -7.05 246.12 -6.96L248.01 -6.4Q249.41 -5.99 250.19 -5.13Q250.96 -4.28 250.96 -3.1Q250.96 -2.12 250.43 -1.36Q249.9 -0.6 248.96 -0.17Q248.02 0.26 246.78 0.26Z M254.38 0V-2.56H256.46V0Z"/>
</svg>
